<svg xmlns="http://www.w3.org/2000/svg" viewBox="0 0 195.05 139.16"><title>logo</title><path fill="#7C4DFF" d="M6.82,58.73l.34.24Q7,61.36,7,65.05v4.13c0,.27,0,1.13.07,2.58a24.86,24.86,0,0,0,.16,2.55,1,1,0,0,0,.25.53.74.74,0,0,0,.4.21c.16,0,.81.08,2,.16l.17.14v.77l-.15.17c-1.52-.1-3-.15-4.4-.15s-2.87,0-4.39.15l-.16-.17v-.77L1,75.21c1.18-.08,1.85-.13,2-.17a.79.79,0,0,0,.4-.22,1,1,0,0,0,.24-.53c0-.24.09-1,.15-2.36s.08-2.34.08-3V65.31c0-.49,0-1.16-.07-2S3.75,62,3.72,61.76a.59.59,0,0,0-.28-.43,2.22,2.22,0,0,0-1-.14H1L.79,61v-.79l.14-.14A24,24,0,0,0,6.82,58.73ZM5.26,50.56a2,2,0,0,1,1.46.6,2,2,0,0,1,.61,1.46,1.94,1.94,0,0,1-.61,1.45,2,2,0,0,1-1.46.6,2,2,0,0,1-1.45-.59,2.05,2.05,0,0,1,0-2.92A2,2,0,0,1,5.26,50.56Z" transform="translate(-0.79 0)"/><path fill="#7C4DFF" d="M11.73,61.8v-.48l.13-.18A26.46,26.46,0,0,0,14.64,60c0-3.18,0-5-.11-5.55A15.75,15.75,0,0,0,17.61,53l.44.37q-.18,1.14-.44,6.68c.61,0,1.27,0,2,0A30.81,30.81,0,0,0,22.67,60l.13.13-.34,1.53-.15.17-2.07,0-2.63,0-.11,7.44a29,29,0,0,0,.12,3.37,1.92,1.92,0,0,0,.66,1.24,2.44,2.44,0,0,0,1.6.45,4.33,4.33,0,0,0,2.27-.64l.43.65q-.43.31-2.1,1.83a4.6,4.6,0,0,1-1.93.44q-4.12,0-4.12-4c0-1,0-1.81.08-2.49,0-.2,0-.42,0-.64V61.87h-.75c-.55,0-1.18,0-1.89.07Z" transform="translate(-0.79 0)"/><path fill="#7C4DFF" d="M23.92,68.28V68l.82-2.45h9.77v.27l-.87,2.43Z" transform="translate(-0.79 0)"/><path fill="#7C4DFF" d="M37,69.85l.15-.14H38l.15.14a17.44,17.44,0,0,0,.24,2.86,2.38,2.38,0,0,0,1,1.1,7,7,0,0,0,2.21.94,10.59,10.59,0,0,0,2.79.37,8.14,8.14,0,0,0,3.48-.72,5.38,5.38,0,0,0,2.4-2.09,5.75,5.75,0,0,0,.86-3.09,5.09,5.09,0,0,0-.41-2.11,3.7,3.7,0,0,0-1.15-1.43,5.17,5.17,0,0,0-1.69-.8c-.64-.18-1.58-.37-2.83-.58s-2.18-.37-2.86-.53A9.76,9.76,0,0,1,40.16,63a5.65,5.65,0,0,1-1.71-1.25,5.8,5.8,0,0,1-1.09-1.87,6.55,6.55,0,0,1-.42-2.36A7.27,7.27,0,0,1,39.32,52a9,9,0,0,1,6.38-2.19,17.11,17.11,0,0,1,3.46.4,14.11,14.11,0,0,1,3.41,1.16l.12.22a25.53,25.53,0,0,0-.49,4.78l-.16.15h-.95l-.15-.13c0-1.46-.06-2.38-.11-2.76s-.6-.84-1.66-1.4a7.27,7.27,0,0,0-3.45-.84,6.79,6.79,0,0,0-2.91.62,4.26,4.26,0,0,0-2.05,2,5.87,5.87,0,0,0-.69,2.72,4.16,4.16,0,0,0,.42,1.91,3.49,3.49,0,0,0,1.09,1.32,4.71,4.71,0,0,0,1.55.72c.59.16,1.67.35,3.24.59a19.23,19.23,0,0,1,4.71,1.1,5.2,5.2,0,0,1,2.35,2.06,6.14,6.14,0,0,1,.89,3.39,8.06,8.06,0,0,1-3.17,6.49,11.72,11.72,0,0,1-7.68,2.6,15.26,15.26,0,0,1-6.64-1.36l-.1-.23C36.85,74.46,36.94,72.67,37,69.85Z" transform="translate(-0.79 0)"/><path fill="#7C4DFF" d="M67.39,61.2a3.89,3.89,0,0,0-3.15-1.38,4.07,4.07,0,0,0-3.39,1.56A7.36,7.36,0,0,0,59.64,66c.22,0,1.06.08,2.53.13s2.56.07,3.26.07a29.08,29.08,0,0,0,3.09-.09c0-.29,0-.52,0-.68A6.53,6.53,0,0,0,67.39,61.2Zm57.51,1.13a4.88,4.88,0,0,0-4.4-2.49,4.43,4.43,0,0,0-3.71,1.72,7.91,7.91,0,0,0-1.33,5,14.72,14.72,0,0,0,.66,4.58,7.09,7.09,0,0,0,2.08,3.24,4.82,4.82,0,0,0,3.25,1.22,4.42,4.42,0,0,0,3.57-1.7,8,8,0,0,0,1.4-5.15A12.06,12.06,0,0,0,124.9,62.33Zm0,0a4.88,4.88,0,0,0-4.4-2.49,4.43,4.43,0,0,0-3.71,1.72,7.91,7.91,0,0,0-1.33,5,14.72,14.72,0,0,0,.66,4.58,7.09,7.09,0,0,0,2.08,3.24,4.82,4.82,0,0,0,3.25,1.22,4.42,4.42,0,0,0,3.57-1.7,8,8,0,0,0,1.4-5.15A12.06,12.06,0,0,0,124.9,62.33Zm0,0a4.88,4.88,0,0,0-4.4-2.49,4.43,4.43,0,0,0-3.71,1.72,7.91,7.91,0,0,0-1.33,5,14.72,14.72,0,0,0,.66,4.58,7.09,7.09,0,0,0,2.08,3.24,4.82,4.82,0,0,0,3.25,1.22,4.42,4.42,0,0,0,3.57-1.7,8,8,0,0,0,1.4-5.15A12.06,12.06,0,0,0,124.9,62.33Zm0,0a4.88,4.88,0,0,0-4.4-2.49,4.43,4.43,0,0,0-3.71,1.72,7.91,7.91,0,0,0-1.33,5,14.72,14.72,0,0,0,.66,4.58,7.09,7.09,0,0,0,2.08,3.24,4.82,4.82,0,0,0,3.25,1.22,4.42,4.42,0,0,0,3.57-1.7,8,8,0,0,0,1.4-5.15A12.06,12.06,0,0,0,124.9,62.33ZM126.26,0A69.57,69.57,0,0,0,56.94,63.61a6.68,6.68,0,0,1,.66-1.34,7.82,7.82,0,0,1,1.77-1.66A11.14,11.14,0,0,1,62,59.15a8,8,0,0,1,3-.55,7.2,7.2,0,0,1,3.87,1,5.72,5.72,0,0,1,2.35,2.64,8.73,8.73,0,0,1,.67,3.42c0,.38,0,.74,0,1.09l-.2.21a20.71,20.71,0,0,1-3.35.36c-1.4.06-2.32.09-2.77.09H59.64c0,2.52.66,4.38,1.9,5.58a6.36,6.36,0,0,0,4.57,1.79,7.09,7.09,0,0,0,2.46-.44,15,15,0,0,0,2.49-1.23l.29.31-.58,1.32a10.62,10.62,0,0,1-6,2,10.32,10.32,0,0,1-4.16-.85A7,7,0,0,1,57.37,73a7.39,7.39,0,0,1-.66-1.39A69.58,69.58,0,1,0,126.26,0ZM94.54,76.14l-.15.15c-1.54-.1-2.59-.15-3.14-.15q-.48,0-2.67.15l-.22-.21q.24-2.37.24-6.19V67.5c0-1.44,0-2.48-.1-3.11a3.91,3.91,0,0,0-.61-1.73,3.55,3.55,0,0,0-1.37-1.2,4.52,4.52,0,0,0-2-.43,6,6,0,0,0-1.63.19,5.13,5.13,0,0,0-1.51.79,5.39,5.39,0,0,0-1.24,1.11,2.4,2.4,0,0,0-.49,1A14.46,14.46,0,0,0,79.52,66v3.18c0,.27,0,1.13.07,2.58a22,22,0,0,0,.16,2.55,1,1,0,0,0,.24.53.77.77,0,0,0,.41.21c.15,0,.81.08,2,.16l.16.14v.77l-.14.17q-2.28-.15-4.41-.15t-4.38.15l-.16-.17v-.77l.16-.14c1.18-.08,1.85-.13,2-.17a.79.79,0,0,0,.4-.22,1,1,0,0,0,.24-.53c0-.24.09-1,.15-2.36s.08-2.34.08-3V65.31c0-.49,0-1.16-.07-2s-.09-1.35-.12-1.55a.58.58,0,0,0-.29-.43,2.17,2.17,0,0,0-.95-.14H73.51L73.34,61v-.79l.15-.14a23.83,23.83,0,0,0,5.88-1.37l.35.24q-.1,1.22-.15,3.21c1-.8,1.9-1.62,2.78-2.45a3.46,3.46,0,0,1,.72-.51,6.48,6.48,0,0,1,1.13-.35,7.14,7.14,0,0,1,1.6-.18,6.68,6.68,0,0,1,2.7.57,5.32,5.32,0,0,1,2,1.34,4.28,4.28,0,0,1,.93,1.84,11.31,11.31,0,0,1,.25,2.61v3.22c0,.2,0,1.72.09,4.54a3.68,3.68,0,0,0,.39,2.07,4.28,4.28,0,0,0,2.26.33l.15.14ZM107.47,75a7.83,7.83,0,0,1-5.35,1.81,20.07,20.07,0,0,1-2.86-.26c-1.14-.17-2.11-.36-2.91-.56l-.09-.24.18-1.22a8.78,8.78,0,0,0,.11-1.15c0-.38,0-1.19,0-2.42l.16-.16h.79l.16.16a23,23,0,0,0,.18,2.63,3.93,3.93,0,0,0,2,1.4,7.5,7.5,0,0,0,2.74.54,4.46,4.46,0,0,0,3.09-1A3.22,3.22,0,0,0,106.83,72a2.26,2.26,0,0,0-.41-1.36,3.19,3.19,0,0,0-1.27-1,20.09,20.09,0,0,0-3.05-.88c-1.25-.3-2.13-.52-2.63-.69A4.24,4.24,0,0,1,98,67.26,3.85,3.85,0,0,1,97,65.83,4.78,4.78,0,0,1,96.6,64a4.67,4.67,0,0,1,2-3.92,7.81,7.81,0,0,1,4.85-1.47,12.05,12.05,0,0,1,2.67.34,15.26,15.26,0,0,1,2.19.65l.16.26a32.94,32.94,0,0,0-.18,3.83l-.16.17h-.73l-.17-.17a8.28,8.28,0,0,0-.2-1.56,2.26,2.26,0,0,0-.66-1,4.29,4.29,0,0,0-1.49-.88,6.09,6.09,0,0,0-2-.35,4.67,4.67,0,0,0-1.87.33,2.86,2.86,0,0,0-1.23,1,2.78,2.78,0,0,0-.46,1.62,2.63,2.63,0,0,0,.28,1.24,2.19,2.19,0,0,0,.87.89,4.37,4.37,0,0,0,1.22.48l2,.51A29.67,29.67,0,0,1,107.25,67,3.78,3.78,0,0,1,109,68.4a4,4,0,0,1,.6,2.24A5.56,5.56,0,0,1,107.47,75Zm19.71-.82a9.22,9.22,0,0,1-6.68,2.7,7.9,7.9,0,0,1-4.57-1.38,8.59,8.59,0,0,1-3-3.37,10,10,0,0,1-.95-4.33,10.14,10.14,0,0,1,.89-4.19A8.24,8.24,0,0,1,116,60.09a9.31,9.31,0,0,1,5.27-1.47A8.28,8.28,0,0,1,130,67.26,9.2,9.2,0,0,1,127.18,74.15Zm5.25,2.14-.16-.17v-.77l.16-.14c1.19-.08,1.85-.13,2-.17a.82.82,0,0,0,.41-.22,1,1,0,0,0,.23-.53c.05-.24.1-1,.15-2.36s.08-2.34.08-3V65.31c0-.49,0-1.16-.07-2s-.09-1.35-.12-1.55a.57.57,0,0,0-.28-.43,2.2,2.2,0,0,0-1-.14h-1.54l-.16-.15v-.79l.14-.14a24,24,0,0,0,5.89-1.37l.34.24c-.07.7-.12,2-.16,3.76L139.76,61a10.41,10.41,0,0,1,1.2-1.32,3.67,3.67,0,0,1,1.21-.72,4.11,4.11,0,0,1,1.43-.26,3.54,3.54,0,0,1,1.51.33l.13.26c-.19,1.62-.3,3-.33,4.27h-.82a2.45,2.45,0,0,0-2.36-1.68,2.94,2.94,0,0,0-2,.72,3.51,3.51,0,0,0-1.12,1.81,11.08,11.08,0,0,0-.29,2.75v2c0,.36,0,1.26.08,2.68a24.12,24.12,0,0,0,.15,2.47.83.83,0,0,0,.71.7q.28,0,2.61.18l.16.14v.77l-.16.17c-1.62-.1-3.32-.15-5.08-.15C135.42,76.14,134,76.19,132.43,76.29Zm20.86-6c0-12.75-9.49-23.18-21.43-23.79a7.45,7.45,0,0,1,1.16-.06,23.35,23.35,0,0,1,6.69,45.73A24,24,0,0,0,153.29,70.32Zm12-1.06c0-17.9-13.33-32.54-30.1-33.4a11.14,11.14,0,0,1,1.63-.09A32.8,32.8,0,0,1,146.2,100C157.41,94.84,165.27,83,165.27,69.26Zm-13,39.48C167.43,101.8,178,85.83,178,67.3c0-24.13-18-43.88-40.59-45a13.47,13.47,0,0,1,2.2-.12,44.2,44.2,0,0,1,12.7,86.56ZM120.5,59.84a4.43,4.43,0,0,0-3.71,1.72,7.91,7.91,0,0,0-1.33,5,14.72,14.72,0,0,0,.66,4.58,7.09,7.09,0,0,0,2.08,3.24,4.82,4.82,0,0,0,3.25,1.22,4.42,4.42,0,0,0,3.57-1.7,8,8,0,0,0,1.4-5.15,12.06,12.06,0,0,0-1.52-6.37A4.88,4.88,0,0,0,120.5,59.84Zm4.4,2.49a4.88,4.88,0,0,0-4.4-2.49,4.43,4.43,0,0,0-3.71,1.72,7.91,7.91,0,0,0-1.33,5,14.72,14.72,0,0,0,.66,4.58,7.09,7.09,0,0,0,2.08,3.24,4.82,4.82,0,0,0,3.25,1.22,4.42,4.42,0,0,0,3.57-1.7,8,8,0,0,0,1.4-5.15A12.06,12.06,0,0,0,124.9,62.33Zm0,0a4.88,4.88,0,0,0-4.4-2.49,4.43,4.43,0,0,0-3.71,1.72,7.91,7.91,0,0,0-1.33,5,14.72,14.72,0,0,0,.66,4.58,7.09,7.09,0,0,0,2.08,3.24,4.82,4.82,0,0,0,3.25,1.22,4.42,4.42,0,0,0,3.57-1.7,8,8,0,0,0,1.4-5.15A12.06,12.06,0,0,0,124.9,62.33Zm0,0a4.88,4.88,0,0,0-4.4-2.49,4.43,4.43,0,0,0-3.71,1.72,7.91,7.91,0,0,0-1.33,5,14.72,14.72,0,0,0,.66,4.58,7.09,7.09,0,0,0,2.08,3.24,4.82,4.82,0,0,0,3.25,1.22,4.42,4.42,0,0,0,3.57-1.7,8,8,0,0,0,1.4-5.15A12.06,12.06,0,0,0,124.9,62.33Zm0,0a4.88,4.88,0,0,0-4.4-2.49,4.43,4.43,0,0,0-3.71,1.72,7.91,7.91,0,0,0-1.33,5,14.72,14.72,0,0,0,.66,4.58,7.09,7.09,0,0,0,2.08,3.24,4.82,4.82,0,0,0,3.25,1.22,4.42,4.42,0,0,0,3.57-1.7,8,8,0,0,0,1.4-5.15A12.06,12.06,0,0,0,124.9,62.33ZM67.39,61.2a3.89,3.89,0,0,0-3.15-1.38,4.07,4.07,0,0,0-3.39,1.56A7.36,7.36,0,0,0,59.64,66c.22,0,1.06.08,2.53.13s2.56.07,3.26.07a29.08,29.08,0,0,0,3.09-.09c0-.29,0-.52,0-.68A6.53,6.53,0,0,0,67.39,61.2Z" transform="translate(-0.79 0)"/></svg>